<svg xmlns="http://www.w3.org/2000/svg" xmlns:xlink="http://www.w3.org/1999/xlink" width="500" zoomAndPan="magnify" viewBox="0 0 375 374.999991" height="500" preserveAspectRatio="xMidYMid meet" version="1.0"><defs><g/><clipPath id="4f496815a7"><path d="M 108 94 L 267.621094 94 L 267.621094 243 L 108 243 Z M 108 94 " clip-rule="nonzero"/></clipPath><clipPath id="4072e0dfe2"><path d="M 108 174 L 267.621094 174 L 267.621094 243 L 108 243 Z M 108 174 " clip-rule="nonzero"/></clipPath></defs><rect x="-37.5" width="450" fill="#ffffff" y="-37.499999" height="449.999989" fill-opacity="1"/><rect x="-37.5" width="450" fill="#ffffff" y="-37.499999" height="449.999989" fill-opacity="1"/><rect x="-37.5" width="450" fill="#ffffff" y="-37.499999" height="449.999989" fill-opacity="1"/><g fill="#004aad" fill-opacity="1"><g transform="translate(106.603386, 239.253437)"><g><path d="M 16.046875 4.367188 C 21.976562 4.953125 26.808594 -3.023438 20.9375 -7.949219 C 18.753906 -9.765625 16.527344 -11.621094 14.363281 -13.421875 C 10.191406 -8.410156 6.039062 -3.421875 1.882812 1.570312 C 3.125 2.601562 4.433594 3.691406 5.71875 4.757812 L 9.390625 0.347656 L 11.382812 2.007812 L 10.277344 8.554688 L 14.5625 12.121094 L 15.023438 11.566406 Z M 14.964844 -0.773438 L 12.222656 -3.054688 C 13.222656 -4.253906 14.328125 -5.582031 15.34375 -6.804688 C 16.242188 -6.054688 17.203125 -5.292969 18.085938 -4.523438 C 20.25 -2.683594 17.042969 0.953125 14.964844 -0.773438 Z M 14.964844 -0.773438 "/></g></g></g><g fill="#004aad" fill-opacity="1"><g transform="translate(123.517156, 252.718859)"><g><path d="M 9.347656 0.503906 L 14.894531 -8.742188 L 16.851562 -7.566406 C 17.710938 -9 18.242188 -9.882812 19.089844 -11.292969 C 16.363281 -12.929688 13.664062 -14.546875 10.941406 -16.179688 C 10.09375 -14.769531 9.5625 -13.886719 8.703125 -12.453125 L 10.664062 -11.277344 L 5.117188 -2.03125 L 2.992188 -3.308594 C 2.144531 -1.898438 1.613281 -1.011719 0.742188 0.445312 C 3.585938 2.148438 6.378906 3.828125 9.222656 5.53125 C 10.097656 4.074219 10.628906 3.191406 11.472656 1.78125 Z M 9.347656 0.503906 "/></g></g></g><g fill="#004aad" fill-opacity="1"><g transform="translate(135.235446, 260.065637)"><g><path d="M 23.367188 -1.320312 C 28.269531 -13.882812 9.632812 -21.15625 4.730469 -8.59375 C -0.183594 3.996094 18.453125 11.269531 23.367188 -1.320312 Z M 9.503906 -6.726562 C 12.058594 -13.269531 21.167969 -9.714844 18.617188 -3.171875 C 16.042969 3.421875 6.933594 -0.136719 9.503906 -6.726562 Z M 9.503906 -6.726562 "/></g></g></g><g fill="#004aad" fill-opacity="1"><g transform="translate(158.719492, 268.804184)"><g><path d="M 14.675781 2.457031 L 19.484375 3.261719 L 19.601562 2.546875 L 14.0625 -17.675781 L 11.945312 -18.03125 L 0.148438 -0.710938 L 0.0273438 0.00390625 L 4.835938 0.808594 L 6.367188 -1.421875 L 13.953125 -0.152344 Z M 13.0625 -4.621094 L 8.664062 -5.359375 L 11.683594 -10.050781 Z M 13.0625 -4.621094 "/></g></g></g><g fill="#004aad" fill-opacity="1"><g transform="translate(180.589623, 272.072498)"><g><path d="M 7.3125 -19.5625 C 5.613281 -19.550781 3.96875 -19.535156 2.296875 -19.523438 L 2.453125 -0.0195312 C 6.40625 -0.0507812 10.53125 -0.0820312 14.542969 -0.117188 C 14.53125 -1.785156 14.519531 -2.929688 14.507812 -4.601562 L 7.429688 -4.546875 C 7.367188 -12.847656 7.390625 -9.476562 7.3125 -19.5625 Z M 7.3125 -19.5625 "/></g></g></g><g fill="#004aad" fill-opacity="1"><g transform="translate(198.281386, 271.805632)"><g><path d="M 11.203125 -21.671875 C 6.695312 -20.910156 3.644531 -20.394531 -0.804688 -19.644531 C 0.273438 -13.269531 1.359375 -6.84375 2.445312 -0.414062 C 6.894531 -1.164062 10.191406 -1.722656 14.699219 -2.484375 C 14.453125 -3.941406 14.203125 -5.421875 13.960938 -6.851562 C 11.074219 -6.363281 9.425781 -6.085938 6.597656 -5.609375 C 6.402344 -6.761719 6.214844 -7.859375 6.027344 -8.988281 L 12.566406 -10.089844 C 12.320312 -11.546875 12.074219 -13.003906 11.828125 -14.460938 L 5.289062 -13.355469 L 4.828125 -16.074219 C 7.660156 -16.554688 9.085938 -16.792969 11.945312 -17.277344 C 11.695312 -18.761719 11.441406 -20.246094 11.203125 -21.671875 Z M 11.203125 -21.671875 "/></g></g></g><g fill="#004aad" fill-opacity="1"><g transform="translate(217.043702, 268.54982)"><g><path d="M 11.898438 -11.621094 C 15.410156 -16.4375 10.976562 -24.644531 3.757812 -22.078125 C 1.082031 -21.117188 -1.644531 -20.136719 -4.292969 -19.183594 C -2.085938 -13.046875 0.109375 -6.9375 2.308594 -0.828125 C 3.828125 -1.375 5.425781 -1.953125 7 -2.515625 L 5.058594 -7.917969 L 7.496094 -8.792969 L 12.585938 -4.523438 L 17.828125 -6.410156 L 17.585938 -7.089844 Z M 6.917969 -13.292969 L 3.558594 -12.085938 C 3.03125 -13.554688 2.449219 -15.179688 1.910156 -16.675781 C 3.011719 -17.070312 4.15625 -17.511719 5.265625 -17.882812 C 7.949219 -18.816406 9.460938 -14.207031 6.917969 -13.292969 Z M 6.917969 -13.292969 "/></g></g></g><g fill="#004aad" fill-opacity="1"><g transform="translate(237.382726, 260.852)"><g><path d="M -2.800781 -15.722656 L 4.648438 -2.648438 C 6.074219 -3.460938 7.503906 -4.277344 8.933594 -5.089844 L 1.484375 -18.164062 L 5.621094 -20.523438 C 4.875 -21.828125 4.144531 -23.113281 3.414062 -24.394531 L -9.171875 -17.222656 C -8.441406 -15.9375 -7.710938 -14.65625 -6.964844 -13.347656 Z M -2.800781 -15.722656 "/></g></g></g><g fill="#004aad" fill-opacity="1"><g transform="translate(252.984713, 251.939644)"><g><path d="M 11.449219 -9.5 L 15.203125 -12.613281 L 14.742188 -13.171875 L -4.1875 -22.195312 L -5.835938 -20.824219 L -0.441406 -0.574219 L 0.0195312 -0.0195312 L 3.773438 -3.132812 L 3.085938 -5.746094 L 9.007812 -10.65625 Z M 5.039062 -12.90625 L 1.609375 -10.058594 L 0.03125 -15.410156 Z M 5.039062 -12.90625 "/></g></g></g><g clip-path="url(#4f496815a7)"><path fill="#2a75c6" d="M 267.414062 173.3125 C 267.453125 172.070312 266.925781 170.808594 265.597656 169.949219 C 257.246094 164.554688 247.605469 154.1875 253.9375 143.894531 C 255.4375 141.453125 253.523438 137.789062 250.546875 137.972656 C 240.304688 138.613281 243.585938 126.445312 249.917969 123.035156 C 252.769531 121.496094 252.347656 116.46875 248.980469 115.84375 C 245.773438 115.246094 242.761719 114.15625 239.625 113.320312 C 238.539062 113.03125 237.457031 112.882812 236.371094 112.816406 C 238.054688 109.132812 240.828125 106.117188 245.058594 105.089844 C 249.226562 104.078125 248.335938 98.875 245.058594 97.5 C 233.398438 92.617188 220.035156 95.398438 208.902344 100.347656 C 197.046875 105.617188 190.222656 115.246094 185.820312 127.109375 C 183.832031 132.457031 182.128906 137.820312 179.199219 142.753906 C 176.390625 147.484375 171.980469 150.753906 167.253906 153.394531 C 160.992188 156.898438 150.578125 160.113281 143.742188 156.140625 C 143.699219 156.023438 143.648438 155.90625 143.613281 155.785156 C 143.136719 154.257812 143.90625 152.746094 144.367188 151.3125 C 145.09375 149.039062 145.714844 146.175781 143.34375 144.707031 C 141.164062 143.355469 138.410156 145.074219 136.910156 146.605469 C 135.539062 148.007812 134.558594 149.800781 133.765625 151.652344 C 133.34375 152.203125 124.429688 174.527344 114.386719 170.863281 C 112.265625 170.089844 110.691406 171.164062 110.003906 172.742188 C 108.957031 173.347656 108.171875 174.417969 108.109375 175.96875 C 107.152344 199.175781 118.441406 219.550781 138.414062 231.21875 C 158.078125 242.707031 182.535156 244.855469 204.5625 240.570312 C 220.351562 237.5 235.574219 230.371094 247.300781 219.246094 C 259.648438 207.53125 266.414062 191.535156 267.539062 174.660156 C 267.574219 174.160156 267.527344 173.710938 267.414062 173.3125 " fill-opacity="1" fill-rule="nonzero"/></g><g clip-path="url(#4072e0dfe2)"><path fill="#004aad" d="M 260.828125 182.351562 C 256.167969 187.183594 250.582031 192.273438 243.890625 193.921875 C 237.414062 195.519531 229.816406 195.390625 224.527344 190.90625 C 223.378906 189.929688 222.28125 188.761719 221.027344 187.925781 C 220.136719 187.335938 219.171875 188.566406 218.394531 189.25 C 216.082031 191.292969 213.8125 192.886719 210.976562 194.128906 C 204.878906 196.792969 197.976562 197.566406 191.378906 197.246094 C 177.285156 196.5625 163.394531 192.1875 150.710938 186.136719 C 143.894531 182.882812 137.144531 178.777344 129.546875 177.683594 C 125.644531 177.117188 120.101562 176.699219 116.523438 178.648438 C 113.824219 180.117188 111.679688 182.152344 108.714844 183.09375 C 108.542969 183.144531 108.375 183.15625 108.214844 183.136719 C 109.613281 203.332031 120.527344 220.773438 138.414062 231.21875 C 158.078125 242.707031 182.535156 244.855469 204.5625 240.570312 C 220.351562 237.5 235.574219 230.371094 247.300781 219.246094 C 259.617188 207.5625 266.378906 191.613281 267.53125 174.78125 C 265.328125 177.359375 263.148438 179.949219 260.828125 182.351562 " fill-opacity="1" fill-rule="nonzero"/></g><path fill="#38b6ff" d="M 152.71875 176.015625 C 169.753906 178.441406 188.242188 179.65625 202.972656 169.242188 C 209.128906 164.890625 214.414062 159.40625 219.148438 153.566406 C 223.578125 148.089844 228.347656 143.269531 235.953125 143.921875 C 242 144.441406 244.964844 148.730469 245.585938 154.378906 C 246.15625 159.535156 246.460938 165.027344 251.320312 168.113281 C 255.292969 170.632812 260.203125 171.25 264.742188 170.054688 C 264.980469 169.992188 265.214844 169.921875 265.445312 169.847656 C 257.128906 164.425781 247.644531 154.128906 253.9375 143.894531 C 255.4375 141.453125 253.523438 137.789062 250.546875 137.972656 C 240.304688 138.613281 243.585938 126.445312 249.917969 123.035156 C 252.769531 121.496094 252.347656 116.46875 248.980469 115.84375 C 245.773438 115.246094 242.761719 114.15625 239.625 113.320312 C 238.539062 113.03125 237.457031 112.882812 236.371094 112.816406 C 238.054688 109.132812 240.828125 106.117188 245.058594 105.089844 C 249.226562 104.078125 248.335938 98.875 245.058594 97.5 C 233.398438 92.617188 220.035156 95.398438 208.902344 100.347656 C 197.046875 105.617188 190.222656 115.246094 185.820312 127.109375 C 183.832031 132.457031 182.128906 137.820312 179.199219 142.753906 C 176.390625 147.484375 171.980469 150.753906 167.253906 153.394531 C 160.992188 156.898438 150.578125 160.113281 143.742188 156.140625 C 143.699219 156.023438 143.648438 155.90625 143.613281 155.785156 C 143.136719 154.257812 143.90625 152.746094 144.367188 151.3125 C 145.09375 149.039062 145.714844 146.175781 143.34375 144.707031 C 141.164062 143.355469 138.410156 145.074219 136.910156 146.605469 C 135.539062 148.007812 134.558594 149.800781 133.765625 151.652344 C 133.34375 152.203125 124.429688 174.527344 114.386719 170.863281 C 112.265625 170.089844 110.691406 171.164062 110.003906 172.742188 C 108.957031 173.347656 108.171875 174.417969 108.109375 175.96875 C 108.058594 177.175781 108.050781 178.375 108.066406 179.5625 C 115.890625 166.898438 140.902344 174.332031 152.71875 176.015625 " fill-opacity="1" fill-rule="nonzero"/><path fill="#2a75c6" d="M 151.453125 136.296875 C 150.316406 136.167969 149.1875 136.855469 148.238281 137.691406 C 146.800781 138.890625 144.09375 141.109375 146.050781 142.996094 C 147.980469 144.855469 150.972656 143.582031 152.613281 141.976562 C 154.277344 140.347656 154.261719 136.621094 151.453125 136.296875 " fill-opacity="1" fill-rule="nonzero"/></svg>