<svg xmlns="http://www.w3.org/2000/svg" xmlns:xlink="http://www.w3.org/1999/xlink" width="500" zoomAndPan="magnify" viewBox="0 0 375 374.999991" height="500" preserveAspectRatio="xMidYMid meet" version="1.0"><defs><clipPath id="8934257730"><path d="M 58.234375 141.070312 L 316.984375 141.070312 L 316.984375 234.070312 L 58.234375 234.070312 Z M 58.234375 141.070312 " clip-rule="nonzero"/></clipPath><clipPath id="09ce562082"><path d="M 58.234375 142 L 316.984375 142 L 316.984375 228 L 58.234375 228 Z M 58.234375 142 " clip-rule="nonzero"/></clipPath></defs><g clip-path="url(#8934257730)"><path fill="#493b34" d="M 271.304688 198.613281 C 273.472656 197.769531 275.6875 196.5 277.300781 195.46875 C 277.828125 195.125 278.066406 194.519531 277.933594 193.910156 C 277.800781 193.300781 277.324219 192.851562 276.691406 192.773438 C 275.53125 192.589844 273.839844 192.40625 272.125 192.351562 C 272.863281 190.792969 273.445312 189.234375 273.8125 188.097656 C 274.023438 187.515625 273.839844 186.882812 273.363281 186.484375 C 272.890625 186.089844 272.230469 186.035156 271.703125 186.355469 C 270.566406 187.015625 268.957031 187.992188 267.476562 189.101562 C 267.054688 187.304688 266.449219 185.5625 266 184.347656 C 265.789062 183.765625 265.234375 183.394531 264.625 183.394531 C 264.019531 183.394531 263.464844 183.765625 263.253906 184.347656 C 262.777344 185.5625 262.195312 187.304688 261.773438 189.101562 C 260.296875 187.964844 258.710938 187.015625 257.550781 186.355469 C 257.023438 186.035156 256.363281 186.089844 255.886719 186.484375 C 255.410156 186.882812 255.226562 187.515625 255.4375 188.097656 C 255.808594 189.234375 256.386719 190.792969 257.128906 192.351562 C 256.492188 192.378906 255.859375 192.402344 255.277344 192.457031 C 254.671875 192.402344 254.066406 192.378906 253.429688 192.351562 C 254.171875 190.792969 254.75 189.234375 255.121094 188.097656 C 255.332031 187.515625 255.148438 186.882812 254.671875 186.484375 C 254.195312 186.089844 253.535156 186.035156 253.007812 186.355469 C 251.871094 187.015625 250.261719 187.992188 248.785156 189.101562 C 248.363281 187.304688 247.753906 185.5625 247.304688 184.347656 C 247.09375 183.765625 246.539062 183.394531 245.933594 183.394531 C 245.324219 183.394531 244.769531 183.765625 244.558594 184.347656 C 244.085938 185.5625 243.503906 187.304688 243.082031 189.101562 C 241.601562 187.964844 240.019531 187.015625 238.855469 186.355469 C 238.328125 186.035156 237.667969 186.089844 237.191406 186.484375 C 236.71875 186.882812 236.53125 187.515625 236.742188 188.097656 C 237.113281 189.234375 237.695312 190.792969 238.433594 192.351562 C 236.71875 192.402344 235.054688 192.617188 233.867188 192.773438 C 233.257812 192.851562 232.785156 193.300781 232.625 193.910156 C 232.492188 194.519531 232.730469 195.125 233.257812 195.46875 C 234.871094 196.527344 237.007812 197.792969 239.121094 198.613281 L 230.804688 198.613281 C 223.726562 198.613281 216.96875 195.972656 211.765625 191.1875 C 206.59375 186.433594 203.421875 179.960938 202.816406 172.984375 L 202.710938 170.476562 C 202.605469 154.253906 189.429688 141.070312 173.246094 141.070312 L 58.234375 141.070312 L 58.234375 171.109375 L 144.492188 171.109375 C 145.917969 171.109375 147.34375 171.214844 148.714844 171.425781 C 149.03125 172.296875 149.429688 173.25 149.90625 174.226562 C 148.1875 174.28125 146.523438 174.492188 145.335938 174.648438 C 144.730469 174.730469 144.253906 175.179688 144.097656 175.785156 C 143.9375 176.394531 144.203125 177 144.730469 177.34375 C 146.894531 178.769531 150.0625 180.59375 152.78125 181.175781 C 154.023438 181.441406 155.792969 181.597656 157.535156 181.597656 C 157.613281 181.597656 157.71875 181.597656 157.800781 181.597656 C 157.613281 181.941406 157.585938 182.339844 157.71875 182.734375 C 158.089844 183.871094 158.671875 185.429688 159.410156 186.988281 C 157.691406 187.039062 156.03125 187.253906 154.839844 187.410156 C 154.234375 187.488281 153.757812 187.9375 153.601562 188.546875 C 153.441406 189.15625 153.707031 189.761719 154.234375 190.105469 C 156.003906 191.269531 159.4375 193.300781 162.289062 193.9375 C 163.527344 194.199219 165.296875 194.359375 167.039062 194.359375 C 168.78125 194.359375 170.5 194.226562 171.554688 193.9375 C 171.714844 193.882812 171.871094 193.855469 172.003906 193.804688 C 172.347656 195.546875 172.53125 197.371094 172.53125 199.222656 C 172.53125 215.441406 185.707031 228.625 201.917969 228.625 L 204.453125 228.625 C 204.453125 229.101562 204.71875 229.550781 205.113281 229.816406 C 207.277344 231.242188 210.445312 233.066406 213.167969 233.644531 C 214.40625 233.910156 216.175781 234.070312 217.917969 234.070312 C 219.660156 234.070312 221.378906 233.9375 222.433594 233.644531 C 225.101562 232.933594 228.347656 231.1875 230.460938 229.816406 C 230.882812 229.550781 231.121094 229.101562 231.121094 228.625 L 316.984375 228.625 L 316.984375 198.613281 Z M 164.082031 183.738281 C 162.921875 182.839844 161.679688 182.046875 160.652344 181.441406 C 161.179688 181.386719 161.652344 181.28125 162.050781 181.203125 C 163 180.9375 164.03125 180.566406 165.058594 180.117188 C 165.085938 180.144531 165.113281 180.171875 165.140625 180.199219 C 164.769531 181.226562 164.398438 182.46875 164.082031 183.738281 Z M 252.53125 198.613281 C 253.429688 198.269531 254.328125 197.847656 255.199219 197.398438 C 256.042969 197.847656 256.941406 198.269531 257.8125 198.613281 Z M 252.53125 198.613281 " fill-opacity="1" fill-rule="nonzero"/></g><g clip-path="url(#09ce562082)"><path fill="#3594b1" d="M 230.722656 199.882812 C 223.332031 199.882812 216.253906 197.132812 210.816406 192.113281 C 205.402344 187.121094 202.078125 180.382812 201.441406 173.066406 C 201.441406 173.066406 201.441406 173.039062 201.441406 173.039062 L 201.335938 170.5 C 201.335938 170.5 201.335938 170.476562 201.335938 170.476562 C 201.335938 154.964844 188.742188 142.335938 173.246094 142.335938 L 58.234375 142.335938 L 58.234375 169.816406 L 144.492188 169.816406 C 145.757812 169.816406 147 169.894531 148.242188 170.050781 C 148.242188 170.027344 148.214844 169.972656 148.214844 169.945312 C 148.003906 169.367188 148.1875 168.730469 148.664062 168.335938 C 149.140625 167.9375 149.796875 167.886719 150.328125 168.203125 C 151.460938 168.863281 153.074219 169.839844 154.550781 170.949219 C 154.972656 169.15625 155.582031 167.410156 156.03125 166.195312 C 156.242188 165.613281 156.796875 165.246094 157.402344 165.246094 C 158.011719 165.246094 158.566406 165.613281 158.777344 166.195312 C 159.25 167.410156 159.832031 169.15625 160.253906 170.949219 C 161.734375 169.816406 163.316406 168.863281 164.480469 168.203125 C 165.007812 167.886719 165.667969 167.9375 166.140625 168.335938 C 166.617188 168.730469 166.800781 169.367188 166.589844 169.945312 C 166.222656 171.082031 165.640625 172.640625 164.902344 174.199219 C 166.617188 174.253906 168.28125 174.464844 169.46875 174.625 C 170.078125 174.703125 170.550781 175.152344 170.683594 175.757812 C 170.816406 176.367188 170.578125 176.976562 170.050781 177.316406 C 169.46875 177.714844 168.78125 178.109375 168.070312 178.535156 C 168.175781 178.664062 168.253906 178.796875 168.308594 178.957031 C 168.78125 180.171875 169.363281 181.914062 169.785156 183.710938 C 171.265625 182.574219 172.847656 181.625 174.011719 180.964844 C 174.539062 180.648438 175.199219 180.699219 175.671875 181.097656 C 176.148438 181.492188 176.332031 182.125 176.121094 182.707031 C 175.753906 183.84375 175.171875 185.402344 174.433594 186.960938 C 176.148438 187.015625 177.8125 187.226562 179 187.382812 C 179.609375 187.464844 180.082031 187.914062 180.214844 188.519531 C 180.347656 189.128906 180.109375 189.734375 179.582031 190.078125 C 177.890625 191.1875 175.488281 192.511719 173.21875 193.382812 C 173.589844 195.257812 173.800781 197.210938 173.800781 199.222656 C 173.800781 214.730469 186.417969 227.359375 201.917969 227.359375 L 205.113281 227.359375 C 205.296875 227.253906 205.484375 227.171875 205.71875 227.121094 C 206.910156 226.9375 208.570312 226.75 210.289062 226.699219 C 209.550781 225.140625 208.96875 223.582031 208.597656 222.445312 C 208.386719 221.863281 208.570312 221.230469 209.046875 220.832031 C 209.523438 220.4375 210.183594 220.382812 210.710938 220.699219 C 211.847656 221.359375 213.429688 222.339844 214.933594 223.449219 C 215.359375 221.652344 215.964844 219.90625 216.414062 218.691406 C 216.625 218.109375 217.179688 217.742188 217.785156 217.742188 C 218.394531 217.742188 218.949219 218.109375 219.160156 218.691406 C 219.636719 219.90625 220.214844 221.652344 220.636719 223.449219 C 222.117188 222.3125 223.699219 221.359375 224.863281 220.699219 C 225.390625 220.382812 226.050781 220.4375 226.527344 220.832031 C 227 221.230469 227.1875 221.863281 226.976562 222.445312 C 226.605469 223.582031 226.023438 225.140625 225.285156 226.699219 C 227 226.75 228.664062 226.960938 229.851562 227.121094 C 230.0625 227.148438 230.273438 227.226562 230.460938 227.359375 L 316.984375 227.359375 L 316.984375 199.882812 Z M 83.683594 151.664062 C 82.550781 152.589844 81.28125 153.671875 78.800781 153.671875 C 76.34375 153.671875 75.050781 152.617188 73.917969 151.664062 C 72.808594 150.738281 71.855469 149.945312 69.851562 149.945312 C 69.507812 149.945312 69.214844 149.65625 69.214844 149.3125 C 69.214844 148.96875 69.507812 148.679688 69.851562 148.679688 C 72.304688 148.679688 73.597656 149.734375 74.734375 150.6875 C 75.84375 151.613281 76.792969 152.402344 78.800781 152.402344 C 80.808594 152.402344 81.757812 151.613281 82.867188 150.6875 C 84.003906 149.761719 85.269531 148.679688 87.75 148.679688 C 90.207031 148.679688 91.5 149.734375 92.636719 150.6875 C 93.746094 151.613281 94.695312 152.402344 96.703125 152.402344 C 98.707031 152.402344 99.660156 151.613281 100.769531 150.6875 C 101.902344 149.761719 103.171875 148.679688 105.652344 148.679688 C 108.109375 148.679688 109.402344 149.734375 110.539062 150.6875 C 111.644531 151.613281 112.597656 152.402344 114.601562 152.402344 C 116.609375 152.402344 117.5625 151.613281 118.667969 150.6875 C 119.804688 149.761719 121.070312 148.679688 123.554688 148.679688 C 123.898438 148.679688 124.1875 148.96875 124.1875 149.3125 C 124.1875 149.65625 123.898438 149.945312 123.554688 149.945312 C 121.546875 149.945312 120.597656 150.738281 119.488281 151.664062 C 118.351562 152.589844 117.085938 153.671875 114.601562 153.671875 C 112.148438 153.671875 110.855469 152.617188 109.71875 151.664062 C 108.609375 150.738281 107.660156 149.945312 105.652344 149.945312 C 103.644531 149.945312 102.695312 150.738281 101.585938 151.664062 C 100.453125 152.589844 99.183594 153.671875 96.703125 153.671875 C 94.21875 153.671875 92.953125 152.617188 91.816406 151.664062 C 90.707031 150.738281 89.757812 149.945312 87.75 149.945312 C 85.746094 149.945312 84.769531 150.738281 83.683594 151.664062 Z M 142.960938 158.984375 C 140.953125 158.984375 140.003906 159.773438 138.894531 160.699219 C 137.757812 161.652344 136.492188 162.707031 134.007812 162.707031 C 131.527344 162.707031 130.261719 161.652344 129.125 160.699219 C 128.015625 159.773438 127.066406 158.984375 125.058594 158.984375 C 123.050781 158.984375 122.101562 159.773438 120.992188 160.699219 C 119.859375 161.652344 118.589844 162.707031 116.109375 162.707031 C 113.625 162.707031 112.359375 161.652344 111.222656 160.699219 C 110.113281 159.773438 109.164062 158.984375 107.15625 158.984375 C 105.152344 158.984375 104.199219 159.773438 103.089844 160.699219 C 101.957031 161.652344 100.6875 162.707031 98.207031 162.707031 C 95.75 162.707031 94.457031 161.652344 93.324219 160.699219 C 92.214844 159.773438 91.261719 158.984375 89.257812 158.984375 C 88.914062 158.984375 88.621094 158.691406 88.621094 158.347656 C 88.621094 158.003906 88.914062 157.714844 89.257812 157.714844 C 91.710938 157.714844 93.003906 158.769531 94.140625 159.722656 C 95.25 160.648438 96.199219 161.441406 98.207031 161.441406 C 100.214844 161.441406 101.164062 160.648438 102.273438 159.722656 C 103.410156 158.769531 104.675781 157.714844 107.15625 157.714844 C 109.613281 157.714844 110.90625 158.769531 112.042969 159.722656 C 113.152344 160.648438 114.101562 161.441406 116.109375 161.441406 C 118.113281 161.441406 119.066406 160.648438 120.175781 159.722656 C 121.308594 158.769531 122.578125 157.714844 125.058594 157.714844 C 127.515625 157.714844 128.808594 158.769531 129.945312 159.722656 C 131.050781 160.648438 132.003906 161.441406 134.007812 161.441406 C 136.015625 161.441406 136.96875 160.648438 138.074219 159.722656 C 139.210938 158.769531 140.476562 157.714844 142.960938 157.714844 C 143.304688 157.714844 143.59375 158.003906 143.59375 158.347656 C 143.59375 158.691406 143.328125 158.984375 142.960938 158.984375 Z M 249.101562 209.839844 C 247.964844 210.765625 246.699219 211.851562 244.214844 211.851562 C 241.734375 211.851562 240.46875 210.792969 239.332031 209.839844 C 238.222656 208.917969 237.273438 208.125 235.265625 208.125 C 234.921875 208.125 234.632812 207.832031 234.632812 207.492188 C 234.632812 207.148438 234.921875 206.855469 235.265625 206.855469 C 237.722656 206.855469 239.015625 207.914062 240.148438 208.863281 C 241.257812 209.789062 242.210938 210.582031 244.214844 210.582031 C 246.222656 210.582031 247.171875 209.789062 248.28125 208.863281 C 249.417969 207.914062 250.683594 206.855469 253.167969 206.855469 C 255.621094 206.855469 256.914062 207.914062 258.050781 208.863281 C 259.160156 209.789062 260.109375 210.582031 262.117188 210.582031 C 264.125 210.582031 265.074219 209.789062 266.183594 208.863281 C 267.320312 207.914062 268.585938 206.855469 271.066406 206.855469 C 273.523438 206.855469 274.816406 207.914062 275.953125 208.863281 C 277.0625 209.789062 278.011719 210.582031 280.019531 210.582031 C 282.023438 210.582031 282.976562 209.789062 284.085938 208.863281 C 285.21875 207.9375 286.488281 206.855469 288.96875 206.855469 C 289.3125 206.855469 289.601562 207.148438 289.601562 207.492188 C 289.601562 207.832031 289.3125 208.125 288.96875 208.125 C 286.960938 208.125 286.011719 208.917969 284.902344 209.839844 C 283.769531 210.765625 282.5 211.851562 280.019531 211.851562 C 277.535156 211.851562 276.269531 210.792969 275.132812 209.839844 C 274.023438 208.917969 273.074219 208.125 271.066406 208.125 C 269.0625 208.125 268.109375 208.917969 267.003906 209.839844 C 265.867188 210.765625 264.597656 211.851562 262.117188 211.851562 C 259.636719 211.851562 258.367188 210.792969 257.234375 209.839844 C 256.125 208.917969 255.171875 208.125 253.167969 208.125 C 251.160156 208.125 250.210938 208.917969 249.101562 209.839844 Z M 308.402344 217.160156 C 306.394531 217.160156 305.445312 217.953125 304.335938 218.878906 C 303.199219 219.800781 301.933594 220.886719 299.453125 220.886719 C 296.96875 220.886719 295.703125 219.828125 294.566406 218.878906 C 293.457031 217.953125 292.507812 217.160156 290.5 217.160156 C 288.492188 217.160156 287.542969 217.953125 286.433594 218.878906 C 285.300781 219.800781 284.03125 220.886719 281.550781 220.886719 C 279.09375 220.886719 277.800781 219.828125 276.664062 218.878906 C 275.554688 217.953125 274.605469 217.160156 272.597656 217.160156 C 270.59375 217.160156 269.640625 217.953125 268.535156 218.878906 C 267.398438 219.800781 266.128906 220.886719 263.648438 220.886719 C 261.167969 220.886719 259.898438 219.828125 258.765625 218.878906 C 257.65625 217.953125 256.703125 217.160156 254.699219 217.160156 C 254.355469 217.160156 254.0625 216.871094 254.0625 216.527344 C 254.0625 216.183594 254.355469 215.890625 254.699219 215.890625 C 257.152344 215.890625 258.449219 216.949219 259.582031 217.898438 C 260.691406 218.824219 261.640625 219.617188 263.648438 219.617188 C 265.65625 219.617188 266.605469 218.824219 267.714844 217.898438 C 268.851562 216.976562 270.117188 215.890625 272.597656 215.890625 C 275.082031 215.890625 276.347656 216.949219 277.484375 217.898438 C 278.59375 218.824219 279.542969 219.617188 281.550781 219.617188 C 283.558594 219.617188 284.507812 218.824219 285.617188 217.898438 C 286.75 216.976562 288.019531 215.890625 290.5 215.890625 C 292.957031 215.890625 294.25 216.949219 295.386719 217.898438 C 296.496094 218.824219 297.445312 219.617188 299.453125 219.617188 C 301.457031 219.617188 302.410156 218.824219 303.515625 217.898438 C 304.652344 216.976562 305.921875 215.890625 308.402344 215.890625 C 308.746094 215.890625 309.035156 216.183594 309.035156 216.527344 C 309.035156 216.871094 308.746094 217.160156 308.402344 217.160156 Z M 308.402344 217.160156 " fill-opacity="1" fill-rule="nonzero"/></g><path fill="#94b453" d="M 169.46875 176.078125 C 169.496094 176.128906 169.46875 176.234375 169.390625 176.289062 C 167.4375 177.554688 164.269531 179.300781 161.734375 179.960938 C 159.832031 180.460938 155.371094 180.460938 153.074219 179.960938 C 150.40625 179.378906 147.132812 177.398438 145.441406 176.289062 C 145.335938 176.234375 145.335938 176.128906 145.363281 176.078125 C 145.390625 176.023438 145.414062 175.945312 145.523438 175.917969 C 146.839844 175.734375 148.796875 175.496094 150.75 175.496094 C 150.800781 175.496094 150.855469 175.496094 150.933594 175.496094 C 151.171875 175.496094 151.355469 175.390625 151.488281 175.179688 C 151.59375 174.992188 151.621094 174.753906 151.515625 174.542969 C 150.589844 172.773438 149.878906 170.84375 149.429688 169.550781 C 149.402344 169.445312 149.457031 169.367188 149.480469 169.339844 C 149.535156 169.285156 149.613281 169.261719 149.71875 169.3125 C 151.039062 170.078125 152.941406 171.242188 154.578125 172.589844 C 154.761719 172.722656 155 172.773438 155.210938 172.695312 C 155.421875 172.617188 155.582031 172.429688 155.632812 172.21875 C 156.03125 170.160156 156.742188 168.042969 157.269531 166.644531 C 157.324219 166.539062 157.402344 166.511719 157.457031 166.511719 C 157.507812 166.511719 157.613281 166.539062 157.640625 166.644531 C 158.167969 168.042969 158.882812 170.160156 159.277344 172.21875 C 159.332031 172.429688 159.488281 172.617188 159.699219 172.695312 C 159.910156 172.773438 160.148438 172.722656 160.332031 172.589844 C 161.945312 171.242188 163.871094 170.050781 165.191406 169.3125 C 165.296875 169.261719 165.375 169.285156 165.429688 169.339844 C 165.480469 169.390625 165.535156 169.445312 165.480469 169.550781 C 165.035156 170.84375 164.320312 172.773438 163.394531 174.542969 C 163.289062 174.753906 163.289062 174.992188 163.421875 175.179688 C 163.554688 175.363281 163.738281 175.46875 163.976562 175.496094 C 165.957031 175.46875 168.015625 175.707031 169.363281 175.917969 C 169.417969 175.945312 169.46875 176.023438 169.46875 176.078125 Z M 276.691406 194.175781 C 276.664062 194.121094 276.640625 194.042969 276.535156 194.015625 C 275.160156 193.804688 273.128906 193.566406 271.148438 193.59375 C 270.9375 193.59375 270.726562 193.488281 270.59375 193.277344 C 270.488281 193.089844 270.460938 192.851562 270.566406 192.640625 C 271.492188 190.871094 272.203125 188.941406 272.652344 187.648438 C 272.679688 187.542969 272.625 187.464844 272.597656 187.4375 C 272.574219 187.410156 272.46875 187.359375 272.363281 187.410156 C 271.042969 188.175781 269.140625 189.339844 267.503906 190.6875 C 267.320312 190.820312 267.082031 190.871094 266.871094 190.792969 C 266.660156 190.714844 266.5 190.527344 266.449219 190.316406 C 266.050781 188.257812 265.339844 186.144531 264.785156 184.742188 C 264.730469 184.636719 264.652344 184.609375 264.597656 184.609375 C 264.546875 184.609375 264.441406 184.636719 264.414062 184.742188 C 263.886719 186.144531 263.171875 188.257812 262.75 190.316406 C 262.699219 190.527344 262.539062 190.714844 262.328125 190.792969 C 262.117188 190.871094 261.878906 190.820312 261.695312 190.6875 C 260.085938 189.339844 258.15625 188.152344 256.835938 187.410156 C 256.730469 187.359375 256.652344 187.382812 256.597656 187.4375 C 256.546875 187.488281 256.492188 187.542969 256.546875 187.648438 C 256.996094 188.941406 257.707031 190.871094 258.632812 192.640625 C 258.710938 192.800781 258.710938 192.960938 258.683594 193.117188 C 258.894531 193.328125 259.054688 193.59375 259.109375 193.882812 C 259.238281 194.492188 259 195.097656 258.472656 195.441406 C 257.894531 195.8125 257.234375 196.234375 256.519531 196.632812 C 257.761719 197.238281 259.054688 197.769531 260.242188 198.03125 C 262.539062 198.535156 266.976562 198.535156 268.902344 198.03125 C 271.4375 197.371094 274.605469 195.628906 276.558594 194.359375 C 276.691406 194.304688 276.691406 194.226562 276.691406 194.175781 Z M 276.691406 194.175781 " fill-opacity="1" fill-rule="nonzero"/><path fill="#4f9d4d" d="M 179.027344 188.835938 C 179.054688 188.890625 179.027344 188.996094 178.949219 189.050781 C 176.992188 190.316406 173.824219 192.0625 171.289062 192.722656 C 169.390625 193.222656 164.925781 193.222656 162.628906 192.722656 C 159.964844 192.140625 156.691406 190.183594 155 189.050781 C 154.894531 188.996094 154.894531 188.890625 154.921875 188.835938 C 154.949219 188.785156 154.972656 188.707031 155.078125 188.679688 C 156.398438 188.492188 158.351562 188.257812 160.308594 188.257812 C 160.359375 188.257812 160.414062 188.257812 160.492188 188.257812 C 160.703125 188.257812 160.914062 188.152344 161.046875 187.9375 C 161.152344 187.753906 161.179688 187.515625 161.074219 187.304688 C 160.148438 185.535156 159.4375 183.605469 158.988281 182.3125 C 158.960938 182.207031 159.011719 182.125 159.039062 182.101562 C 159.09375 182.046875 159.171875 182.019531 159.277344 182.074219 C 160.597656 182.839844 162.5 184.003906 164.136719 185.351562 C 164.320312 185.480469 164.558594 185.535156 164.769531 185.457031 C 164.980469 185.375 165.140625 185.191406 165.191406 184.980469 C 165.585938 182.917969 166.300781 180.804688 166.828125 179.40625 C 166.882812 179.300781 166.960938 179.273438 167.011719 179.273438 C 167.066406 179.273438 167.171875 179.300781 167.199219 179.40625 C 167.726562 180.804688 168.4375 182.917969 168.835938 184.980469 C 168.886719 185.191406 169.046875 185.375 169.257812 185.457031 C 169.46875 185.535156 169.707031 185.480469 169.890625 185.351562 C 171.503906 184.003906 173.429688 182.8125 174.75 182.074219 C 174.855469 182.019531 174.933594 182.046875 174.988281 182.101562 C 175.039062 182.152344 175.09375 182.207031 175.039062 182.3125 C 174.589844 183.605469 173.878906 185.535156 172.953125 187.304688 C 172.847656 187.515625 172.847656 187.753906 172.980469 187.9375 C 173.085938 188.125 173.296875 188.257812 173.535156 188.257812 C 175.515625 188.230469 177.574219 188.46875 178.921875 188.679688 C 178.972656 188.707031 179.027344 188.785156 179.027344 188.835938 Z M 257.917969 194.175781 C 257.894531 194.121094 257.867188 194.042969 257.761719 194.015625 C 256.386719 193.804688 254.355469 193.566406 252.375 193.59375 C 252.164062 193.59375 251.953125 193.488281 251.820312 193.277344 C 251.714844 193.089844 251.6875 192.851562 251.792969 192.640625 C 252.71875 190.871094 253.429688 188.941406 253.878906 187.648438 C 253.90625 187.542969 253.851562 187.464844 253.828125 187.4375 C 253.773438 187.382812 253.695312 187.359375 253.589844 187.410156 C 252.269531 188.175781 250.367188 189.339844 248.730469 190.6875 C 248.546875 190.820312 248.308594 190.871094 248.097656 190.792969 C 247.886719 190.714844 247.726562 190.527344 247.675781 190.316406 C 247.277344 188.257812 246.566406 186.144531 246.011719 184.742188 C 245.957031 184.636719 245.878906 184.609375 245.828125 184.609375 C 245.773438 184.609375 245.667969 184.636719 245.640625 184.742188 C 245.113281 186.144531 244.402344 188.257812 243.976562 190.316406 C 243.925781 190.527344 243.765625 190.714844 243.554688 190.792969 C 243.34375 190.871094 243.105469 190.820312 242.921875 190.6875 C 241.3125 189.339844 239.382812 188.152344 238.0625 187.410156 C 237.957031 187.359375 237.878906 187.382812 237.828125 187.4375 C 237.773438 187.488281 237.722656 187.542969 237.773438 187.648438 C 238.222656 188.941406 238.933594 190.871094 239.859375 192.640625 C 239.964844 192.851562 239.964844 193.089844 239.832031 193.277344 C 239.726562 193.460938 239.515625 193.59375 239.277344 193.59375 C 239.226562 193.59375 239.171875 193.59375 239.09375 193.59375 C 237.167969 193.59375 235.1875 193.832031 233.867188 194.015625 C 233.761719 194.042969 233.707031 194.121094 233.707031 194.175781 C 233.707031 194.226562 233.707031 194.332031 233.785156 194.386719 C 235.503906 195.496094 238.75 197.449219 241.417969 198.058594 C 243.714844 198.558594 248.148438 198.558594 250.078125 198.058594 C 252.613281 197.398438 255.78125 195.652344 257.734375 194.386719 C 257.945312 194.304688 257.945312 194.226562 257.917969 194.175781 Z M 229.746094 228.414062 C 228.375 228.203125 226.339844 227.964844 224.359375 227.992188 C 224.148438 227.992188 223.9375 227.886719 223.804688 227.675781 C 223.699219 227.492188 223.675781 227.253906 223.78125 227.042969 C 224.703125 225.269531 225.417969 223.34375 225.867188 222.046875 C 225.890625 221.941406 225.839844 221.863281 225.8125 221.835938 C 225.761719 221.785156 225.679688 221.757812 225.574219 221.808594 C 224.253906 222.578125 222.355469 223.738281 220.71875 225.085938 C 220.53125 225.21875 220.296875 225.269531 220.082031 225.191406 C 219.871094 225.113281 219.714844 224.925781 219.660156 224.714844 C 219.265625 222.65625 218.550781 220.542969 217.996094 219.140625 C 217.945312 219.035156 217.867188 219.007812 217.8125 219.007812 C 217.761719 219.007812 217.65625 219.035156 217.628906 219.140625 C 217.101562 220.542969 216.386719 222.65625 215.964844 224.714844 C 215.910156 224.925781 215.753906 225.113281 215.542969 225.191406 C 215.332031 225.269531 215.09375 225.21875 214.910156 225.085938 C 213.296875 223.738281 211.371094 222.550781 210.050781 221.808594 C 209.945312 221.757812 209.867188 221.785156 209.8125 221.835938 C 209.761719 221.890625 209.707031 221.941406 209.761719 222.046875 C 210.207031 223.34375 210.921875 225.269531 211.847656 227.042969 C 211.953125 227.253906 211.953125 227.492188 211.820312 227.675781 C 211.714844 227.859375 211.503906 227.992188 211.265625 227.992188 C 211.210938 227.992188 211.160156 227.992188 211.082031 227.992188 C 209.152344 227.992188 207.199219 228.230469 205.851562 228.414062 C 205.746094 228.441406 205.695312 228.519531 205.695312 228.574219 C 205.695312 228.625 205.695312 228.730469 205.773438 228.785156 C 207.488281 229.894531 210.738281 231.851562 213.402344 232.457031 C 215.699219 232.960938 220.136719 232.960938 222.0625 232.457031 C 224.597656 231.796875 227.765625 230.054688 229.722656 228.785156 C 229.828125 228.730469 229.828125 228.625 229.800781 228.574219 C 229.90625 228.496094 229.878906 228.414062 229.746094 228.414062 Z M 229.746094 228.414062 " fill-opacity="1" fill-rule="nonzero"/></svg>